<svg width="1000" height="1000" viewBox="0 0 1000 1000" fill="none" xmlns="http://www.w3.org/2000/svg">
<rect width="1000" height="1000" rx="500" fill="url(#paint0_linear)"/>
<path d="M482.543 484.881C491.752 492.857 491.752 507.143 482.543 515.119L233.093 731.148C220.14 742.366 200 733.165 200 716.03L200 283.97C200 266.835 220.14 257.634 233.093 268.852L482.543 484.881Z" fill="white"/>
<path d="M517.457 515.119C508.248 507.143 508.248 492.857 517.457 484.881L766.907 268.852C779.86 257.634 800 266.835 800 283.97V716.03C800 733.165 779.86 742.366 766.907 731.148L517.457 515.119Z" fill="white"/>
<defs>
<linearGradient id="paint0_linear" x1="0" y1="500" x2="1000" y2="500" gradientUnits="userSpaceOnUse">
<stop stop-color="#4242E1"/>
<stop offset="1" stop-color="#B81497"/>
</linearGradient>
</defs>
</svg>
